<svg viewBox="0 0 800 450" xmlns="http://www.w3.org/2000/svg" font-family="Segoe UI, Arial, sans-serif">
  <defs>
    <linearGradient id="bg2" x1="0" y1="0" x2="1" y2="1">
      <stop offset="0" stop-color="#231a38"/><stop offset="1" stop-color="#101425"/>
    </linearGradient>
    <linearGradient id="acc2" x1="0" y1="0" x2="1" y2="1">
      <stop offset="0" stop-color="#818cf8"/><stop offset="1" stop-color="#22d3ee"/>
    </linearGradient>
  </defs>
  <rect width="800" height="450" fill="url(#bg2)"/>
  <circle cx="110" cy="70" r="160" fill="#818cf8" opacity="0.07"/>
  <circle cx="720" cy="400" r="150" fill="#22d3ee" opacity="0.06"/>
  <!-- inventory grid icon -->
  <g transform="translate(300,80)">
    <rect x="0" y="0" width="200" height="200" rx="18" fill="none" stroke="url(#acc2)" stroke-width="8"/>
    <line x1="66" y1="8" x2="66" y2="192" stroke="url(#acc2)" stroke-width="5" opacity="0.6"/>
    <line x1="133" y1="8" x2="133" y2="192" stroke="url(#acc2)" stroke-width="5" opacity="0.6"/>
    <line x1="8" y1="66" x2="192" y2="66" stroke="url(#acc2)" stroke-width="5" opacity="0.6"/>
    <line x1="8" y1="133" x2="192" y2="133" stroke="url(#acc2)" stroke-width="5" opacity="0.6"/>
    <rect x="18" y="18" width="36" height="36" rx="6" fill="#f59e0b"/>
    <rect x="84" y="18" width="36" height="36" rx="6" fill="#34d399"/>
    <rect x="84" y="84" width="36" height="36" rx="6" fill="#22d3ee"/>
    <rect x="150" y="150" width="36" height="36" rx="6" fill="#ef4444"/>
    <circle cx="168" cy="36" r="14" fill="#818cf8"/>
  </g>
  <text x="400" y="330" text-anchor="middle" fill="#e6edf3" font-size="40" font-weight="700">Advanced Inventory System</text>
  <text x="400" y="368" text-anchor="middle" fill="#93a4b5" font-size="19">Grid Inventory · Drag &amp; Drop · Crafting · Equipment</text>
  <text x="400" y="410" text-anchor="middle" fill="#818cf8" font-size="15" font-weight="600" letter-spacing="3">REALCUT TOOLS</text>
</svg>
