<svg viewBox="0 0 800 450" xmlns="http://www.w3.org/2000/svg" font-family="Segoe UI, Arial, sans-serif">
  <rect width="800" height="450" fill="#101425"/>
  <!-- fake Unity inspector window -->
  <rect x="60" y="40" width="680" height="370" rx="12" fill="#1a2230" stroke="#223041" stroke-width="2"/>
  <rect x="60" y="40" width="680" height="44" rx="12" fill="#141b24"/>
  <circle cx="90" cy="62" r="7" fill="#ef4444"/><circle cx="114" cy="62" r="7" fill="#f59e0b"/><circle cx="138" cy="62" r="7" fill="#34d399"/>
  <text x="400" y="68" text-anchor="middle" fill="#93a4b5" font-size="16">Inspector — SmartSaveManager</text>
  <rect x="90" y="110" width="620" height="40" rx="8" fill="#22d3ee" opacity="0.12"/>
  <text x="105" y="136" fill="#22d3ee" font-size="17" font-weight="700">⚙ Smart Save Manager (Script)</text>
  <text x="105" y="185" fill="#e6edf3" font-size="15">Auto Save</text>
  <rect x="560" y="170" width="46" height="22" rx="11" fill="#22d3ee"/><circle cx="594" cy="181" r="9" fill="#0b0f14"/>
  <text x="105" y="225" fill="#e6edf3" font-size="15">Save Interval (s)</text>
  <rect x="480" y="208" width="126" height="26" rx="6" fill="#0b0f14" stroke="#223041"/>
  <text x="595" y="226" text-anchor="end" fill="#a5d6ff" font-size="14">120</text>
  <text x="105" y="265" fill="#e6edf3" font-size="15">Encryption</text>
  <rect x="480" y="248" width="126" height="26" rx="6" fill="#0b0f14" stroke="#223041"/>
  <text x="595" y="266" text-anchor="end" fill="#a5d6ff" font-size="14">AES-256 ▾</text>
  <text x="105" y="305" fill="#e6edf3" font-size="15">Save Slots</text>
  <rect x="480" y="288" width="126" height="26" rx="6" fill="#0b0f14" stroke="#223041"/>
  <text x="595" y="306" text-anchor="end" fill="#a5d6ff" font-size="14">3</text>
  <rect x="90" y="340" width="300" height="42" rx="8" fill="#22d3ee"/>
  <text x="240" y="367" text-anchor="middle" fill="#06121a" font-size="16" font-weight="700">Open Save Browser</text>
  <rect x="410" y="340" width="300" height="42" rx="8" fill="none" stroke="#22d3ee" stroke-width="2"/>
  <text x="560" y="367" text-anchor="middle" fill="#22d3ee" font-size="16" font-weight="700">Test Save / Load</text>
</svg>
