<svg viewBox="0 0 800 450" xmlns="http://www.w3.org/2000/svg" font-family="Segoe UI, Arial, sans-serif">
  <defs>
    <linearGradient id="bg" x1="0" y1="0" x2="1" y2="1">
      <stop offset="0" stop-color="#0e2a38"/><stop offset="1" stop-color="#101425"/>
    </linearGradient>
    <linearGradient id="acc" x1="0" y1="0" x2="1" y2="1">
      <stop offset="0" stop-color="#22d3ee"/><stop offset="1" stop-color="#818cf8"/>
    </linearGradient>
  </defs>
  <rect width="800" height="450" fill="url(#bg)"/>
  <circle cx="680" cy="60" r="180" fill="#22d3ee" opacity="0.06"/>
  <circle cx="80" cy="420" r="140" fill="#818cf8" opacity="0.07"/>
  <!-- floppy / save icon -->
  <g transform="translate(310,90)">
    <rect x="0" y="0" width="180" height="180" rx="20" fill="none" stroke="url(#acc)" stroke-width="8"/>
    <path d="M0 20 Q0 0 20 0 H140 L180 40 V160 Q180 180 160 180" fill="none"/>
    <rect x="45" y="0" width="90" height="55" rx="8" fill="url(#acc)" opacity="0.9"/>
    <rect x="100" y="12" width="20" height="32" rx="4" fill="#0b0f14"/>
    <rect x="35" y="95" width="110" height="70" rx="10" fill="#0b0f14" stroke="url(#acc)" stroke-width="5"/>
    <path d="M60 130 l18 18 l42 -42" stroke="#34d399" stroke-width="10" fill="none" stroke-linecap="round" stroke-linejoin="round"/>
  </g>
  <text x="400" y="330" text-anchor="middle" fill="#e6edf3" font-size="40" font-weight="700">Smart Save System</text>
  <text x="400" y="368" text-anchor="middle" fill="#93a4b5" font-size="19">Encrypted Save &amp; Load Framework for Unity</text>
  <text x="400" y="410" text-anchor="middle" fill="#22d3ee" font-size="15" font-weight="600" letter-spacing="3">REALCUT TOOLS</text>
</svg>
